<svg id="Echo-Logo-Web-V1-0_1_" data-name="Echo-Logo-Web-V1-0 (1)" xmlns="http://www.w3.org/2000/svg" width="44.835" height="13" viewBox="0 0 44.835 13">
  <g id="Group_8670" data-name="Group 8670">
    <path id="Path_15828" data-name="Path 15828" d="M42.044,54.66V58.4H39.116V56.894H36.408v2.335h3.215V61.48H36.408v2.758h2.707V62.664h2.928v3.824H31.84V64.238h1.066V56.894H31.84V54.66Z" transform="translate(-31.84 -53.797)" fill="#fff"/>
    <path id="Path_15829" data-name="Path 15829" d="M210.074,110.646c-.034-.812-.287-1.777-1.066-1.777-1,0-1.489,1.066-1.489,2.166a1.817,1.817,0,0,0,1.743,2,2.538,2.538,0,0,0,2.048-.965l1.489,1.726a5.8,5.8,0,0,1-4.146,1.726A4.328,4.328,0,0,1,204,111a3.975,3.975,0,0,1,4.163-4.332,2.724,2.724,0,0,1,2.115.965l.288-.812h2v3.824Z" transform="translate(-193.356 -102.591)" fill="#fff"/>
    <path id="Path_15830" data-name="Path 15830" d="M355.88,53.391V51.174h.71V42.9h-.71V40.7h4.095v5.28a3.955,3.955,0,0,1,2.657-1.353c2.623,0,2.961,1.946,2.961,3.723v2.826h.8v2.217h-4.348v-4.6c0-.575,0-1.574-1-1.574-.863,0-1.066.846-1.066,1.574v2.386h1.219v2.217Z" transform="translate(-335.845 -40.7)" fill="#fff"/>
    <path id="Path_15831" data-name="Path 15831" d="M532.944,110.24a4.416,4.416,0,0,1,4.636-4.4c2.673.034,4.653,1.642,4.7,4.467.034,2.809-2.048,4.416-4.62,4.416C535.246,114.723,532.91,113.235,532.944,110.24Zm5.871.067c0-1.269-.44-2.251-1.235-2.267-.66,0-1.167.981-1.167,2.217,0,1.387.542,2.3,1.252,2.3C538.393,112.558,538.816,111.576,538.816,110.307Z" transform="translate(-501.962 -101.813)" fill="#fff"/>
  </g>
  <circle id="Ellipse_368" data-name="Ellipse 368" cx="1.97" cy="1.97" r="1.97" transform="translate(40.894 9.059)" fill="#676767"/>
</svg>
