<svg id="SAIF" xmlns="http://www.w3.org/2000/svg" xmlns:xlink="http://www.w3.org/1999/xlink" width="112.19" height="99.806" viewBox="0 0 112.19 99.806">
  <defs>
    <clipPath id="clip-path">
      <rect id="Rectangle_46" data-name="Rectangle 46" width="112.19" height="99.806" fill="none"/>
    </clipPath>
  </defs>
  <g id="Group_7907" data-name="Group 7907">
    <g id="Group_7906" data-name="Group 7906" clip-path="url(#clip-path)">
      <path id="Path_673" data-name="Path 673" d="M72.754,72.644C49.943,89.938,22.6,92.288,11.692,77.893S10.425,37.811,33.236,20.517,83.385.873,94.3,15.267,95.565,55.35,72.754,72.644m33.932-61.1C93.318-6.083,59.832-3.2,31.892,17.978S-7.863,70.626,5.5,88.257s46.853,14.752,74.793-6.43,39.755-52.648,26.388-70.279" transform="translate(0 0)" fill="#d2d4d6"/>
    </g>
  </g>
  <rect id="Rectangle_47" data-name="Rectangle 47" width="74.551" height="19.034" transform="matrix(1, -0.003, 0.003, 1, 18.131, 17.317)" fill="#243889"/>
  <rect id="Rectangle_48" data-name="Rectangle 48" width="74.552" height="11.103" transform="matrix(1, -0.003, 0.003, 1, 18.202, 38.801)" fill="#243889"/>
  <rect id="Rectangle_49" data-name="Rectangle 49" width="74.552" height="11.103" transform="matrix(1, -0.003, 0.003, 1, 18.247, 52.268)" fill="#243889"/>
  <rect id="Rectangle_50" data-name="Rectangle 50" width="74.552" height="11.103" transform="matrix(1, -0.003, 0.003, 1, 18.292, 65.77)" fill="#243889"/>
  <g id="Group_7909" data-name="Group 7909">
    <g id="Group_7908" data-name="Group 7908" clip-path="url(#clip-path)">
      <path id="Path_674" data-name="Path 674" d="M31.735,36a8.031,8.031,0,0,1-3.419-.816l.248-2.773a5.082,5.082,0,0,0,3.114,1.2,1.434,1.434,0,0,0,1.633-1.444c0-.835-.532-1.177-2.128-1.842-2.222-.93-2.754-2.107-2.754-3.608,0-2.412,1.861-4.14,4.615-4.14a8.6,8.6,0,0,1,3.229.588l-.494,2.7A4.3,4.3,0,0,0,33.254,25a1.477,1.477,0,0,0-1.633,1.406c0,.892.361,1.215,1.975,1.822,2.108.8,3.114,1.842,3.114,3.571,0,2.337-1.728,4.2-4.975,4.2" transform="translate(-2.719 -2.167)" fill="#fff"/>
      <path id="Path_675" data-name="Path 675" d="M52.821,26.264a6.469,6.469,0,0,1-.113-.836H52.65a4.613,4.613,0,0,1-.113.836l-1.254,4.178h2.81Zm2.887,9.476c-.266-.816-.588-1.747-1.044-3.153H50.79c-.4,1.254-.779,2.431-.988,3.153H46.384c.475-1.177,1.272-3.229,2.374-6.286,1.2-3.266,1.937-5.355,2.317-6.609h3.494c.343,1.082,1.254,3.628,2.413,6.913.987,2.811,1.765,5.033,2.146,5.983Z" transform="translate(-4.454 -2.194)" fill="#fff"/>
      <path id="Path_676" data-name="Path 676" d="M73.639,27.578v3.286c0,2.64.038,3.874.057,4.881H70.544c.019-.912.038-2.355.038-4.8V27.6c0-2.545-.019-3.874-.057-4.71h3.19c-.038.854-.076,2.184-.076,4.691" transform="translate(-6.772 -2.198)" fill="#fff"/>
      <path id="Path_677" data-name="Path 677" d="M90.313,25.395h-1.69v3.171h1.652c.987,0,1.766-.019,2.526-.057l-.076,2.45c-.759-.019-1.482-.019-2.488-.019H88.622V32.5c0,1.14.038,2.507.057,3.248H85.527c.038-.817.057-2.546.057-4.615V27.408c0-2.545-.038-3.685-.057-4.52h7.52l.038,2.545c-.892,0-1.709-.038-2.772-.038" transform="translate(-8.213 -2.198)" fill="#fff"/>
      <path id="Path_678" data-name="Path 678" d="M27.08,48.191V49.67c0,1.189.017,1.744.025,2.2H25.687c.008-.41.016-1.06.016-2.163V48.2c0-1.146-.008-1.745-.025-2.121h1.436c-.017.385-.034.984-.034,2.112" transform="translate(-2.466 -4.425)" fill="#fff"/>
      <path id="Path_679" data-name="Path 679" d="M34.871,48.08v1.615c0,1.026.009,1.8.009,2.189h-1.2l-2.65-3.547a1.634,1.634,0,0,1-.172-.368h-.025a2.425,2.425,0,0,1,.042.41v3.488H29.6c.008-.377.017-1.3.017-2.129V48.147c0-.862,0-1.658-.017-2.068h1.3l2.522,3.471a1.87,1.87,0,0,1,.18.342h.025a4.14,4.14,0,0,1-.042-.479V46.079h1.308c-.017.385-.017.984-.017,2" transform="translate(-2.842 -4.425)" fill="#fff"/>
      <path id="Path_680" data-name="Path 680" d="M39.84,47.181c-.205,0-.479.009-.675.009v3.591h.624a1.651,1.651,0,0,0,1.684-1.838,1.538,1.538,0,0,0-1.633-1.762m-.146,4.685H37.762c.018-.376.034-.923.034-2.052V48.1c0-1.069-.008-1.684-.025-2.027.718,0,1.77-.008,2.146-.008,1.915,0,2.958.923,2.958,2.829a2.905,2.905,0,0,1-3.18,2.967" transform="translate(-3.626 -4.424)" fill="#fff"/>
      <path id="Path_681" data-name="Path 681" d="M48.892,51.867H45.361c.026-.393.026-1.095.026-2.112V48.123c0-1.069-.017-1.684-.026-2.044h3.4l.017,1.128c-.316-.008-.633-.025-1.248-.025h-.777v1.275h.8c.419,0,.726-.009,1.1-.018l-.043,1.035c-.334,0-.589-.017-1.025-.017h-.838v1.316h.88c.633,0,.957-.025,1.3-.042Z" transform="translate(-4.356 -4.425)" fill="#fff"/>
      <path id="Path_682" data-name="Path 682" d="M53.2,47.121c-.163,0-.393,0-.522.009v1.676h.5c.616,0,.992-.316.992-.89,0-.59-.376-.8-.966-.8m.034,2.762h-.556c0,.992.009,1.5.034,1.983H51.285c.008-.384.025-1.171.025-2.026V48.147c0-.974-.008-1.624-.017-2.069.65,0,1.377-.008,2.121-.008,1.3,0,2.129.548,2.129,1.787a2.052,2.052,0,0,1-2.309,2.026" transform="translate(-4.925 -4.424)" fill="#fff"/>
      <path id="Path_683" data-name="Path 683" d="M61.392,51.867H57.861c.026-.393.026-1.095.026-2.112V48.123c0-1.069-.017-1.684-.026-2.044h3.4l.017,1.128c-.316-.008-.633-.025-1.248-.025h-.777v1.275h.8c.419,0,.726-.009,1.1-.018l-.043,1.035c-.334,0-.589-.017-1.025-.017h-.838v1.316h.88c.633,0,.957-.025,1.3-.042Z" transform="translate(-5.556 -4.425)" fill="#fff"/>
      <path id="Path_684" data-name="Path 684" d="M69.06,48.08v1.615c0,1.026.009,1.8.009,2.189h-1.2l-2.65-3.547a1.634,1.634,0,0,1-.172-.368h-.025a2.425,2.425,0,0,1,.042.41v3.488H63.785c.008-.377.017-1.3.017-2.129V48.147c0-.862,0-1.658-.017-2.068h1.3l2.523,3.471a1.919,1.919,0,0,1,.179.342h.025a4.142,4.142,0,0,1-.042-.479V46.079h1.308c-.017.385-.017.984-.017,2" transform="translate(-6.125 -4.425)" fill="#fff"/>
      <path id="Path_685" data-name="Path 685" d="M74.028,47.181c-.205,0-.479.009-.675.009v3.591h.624a1.651,1.651,0,0,0,1.684-1.838,1.538,1.538,0,0,0-1.633-1.762m-.145,4.685H71.951c.017-.376.033-.923.033-2.052V48.1c0-1.069-.008-1.684-.025-2.027.718,0,1.77-.008,2.146-.008,1.915,0,2.958.923,2.958,2.829a2.905,2.905,0,0,1-3.179,2.967" transform="translate(-6.909 -4.424)" fill="#fff"/>
      <path id="Path_686" data-name="Path 686" d="M83.081,51.867H79.55c.026-.393.026-1.095.026-2.112V48.123c0-1.069-.017-1.684-.026-2.044h3.4l.017,1.128c-.316-.008-.633-.025-1.248-.025h-.777v1.275h.8c.419,0,.726-.009,1.1-.018l-.043,1.035c-.334,0-.589-.017-1.025-.017h-.838v1.316h.88c.633,0,.957-.025,1.3-.042Z" transform="translate(-7.639 -4.425)" fill="#fff"/>
      <path id="Path_687" data-name="Path 687" d="M90.748,48.08v1.615c0,1.026.009,1.8.009,2.189h-1.2l-2.65-3.547a1.635,1.635,0,0,1-.172-.368h-.025a2.426,2.426,0,0,1,.042.41v3.488H85.473c.008-.377.017-1.3.017-2.129V48.147c0-.862,0-1.658-.017-2.068h1.3l2.522,3.471a1.87,1.87,0,0,1,.18.342H89.5a4.14,4.14,0,0,1-.042-.479V46.079h1.308c-.017.385-.017.984-.017,2" transform="translate(-8.207 -4.425)" fill="#fff"/>
      <path id="Path_688" data-name="Path 688" d="M96.546,47.243H95.93v2.445c0,.846.009,1.676.025,2.179h-1.41c.017-.47.025-1.376.025-2.2V47.243h-.564c-.4,0-.735.008-1,.017l.016-1.18h4.523l.008,1.18c-.274-.009-.625-.017-1.009-.017" transform="translate(-8.931 -4.425)" fill="#fff"/>
      <path id="Path_689" data-name="Path 689" d="M41.322,61.8h-.761v1.427h.744c.445,0,.8-.008,1.137-.025l-.034,1.1c-.342-.008-.667-.008-1.12-.008h-.727v.7c0,.513.017,1.129.025,1.463H39.168c.016-.368.025-1.146.025-2.078V62.7c0-1.146-.017-1.659-.025-2.035h3.385l.017,1.145c-.4,0-.77-.017-1.248-.017" transform="translate(-3.761 -5.825)" fill="#fff"/>
      <path id="Path_690" data-name="Path 690" d="M49.581,61.933v2.027c0,1.709-.846,2.616-2.48,2.616-1.5,0-2.333-.786-2.333-2.556V61.992c0-.538,0-.965-.017-1.325h1.436c-.008.291-.033.8-.033,1.325V64.07c0,.863.359,1.308,1.034,1.308.59,0,1.018-.343,1.018-1.283V61.959c0-.479-.017-1.026-.026-1.292H49.6c-.008.316-.017.778-.017,1.266" transform="translate(-4.297 -5.825)" fill="#fff"/>
      <path id="Path_691" data-name="Path 691" d="M57.624,62.669v1.615c0,1.026.009,1.8.009,2.189h-1.2l-2.65-3.547a1.6,1.6,0,0,1-.172-.368h-.025a2.425,2.425,0,0,1,.042.41v3.488H52.349c.008-.377.017-1.3.017-2.129V62.736c0-.862,0-1.658-.017-2.068h1.3l2.522,3.471a1.869,1.869,0,0,1,.18.342h.025A4.142,4.142,0,0,1,56.333,64V60.668h1.308c-.017.385-.017.984-.017,2" transform="translate(-5.027 -5.825)" fill="#fff"/>
      <path id="Path_692" data-name="Path 692" d="M64.056,66.456H60.525c.026-.393.026-1.095.026-2.112V62.712c0-1.069-.017-1.684-.026-2.044h3.4l.017,1.128c-.316-.008-.633-.025-1.248-.025h-.777v1.275h.8c.419,0,.726-.009,1.1-.018l-.043,1.035c-.334,0-.589-.017-1.025-.017h-.838v1.316h.88c.633,0,.957-.025,1.3-.042Z" transform="translate(-5.812 -5.825)" fill="#fff"/>
      <path id="Path_693" data-name="Path 693" d="M68.414,61.685c-.163,0-.453.008-.582.008v1.539h.573a.8.8,0,0,0,.88-.8c0-.479-.273-.752-.871-.752m1.069,4.77c-.3-.539-.923-1.692-1.172-2.189h-.479c0,1.009.017,1.7.034,2.189H66.439c.008-.478.025-.966.025-1.958v-1.8c0-1.06-.008-1.565-.025-2.027.786-.008,1.71-.008,2.308-.008,1.48,0,1.95.7,1.95,1.607a1.71,1.71,0,0,1-1.129,1.65c.437.769,1.137,1.916,1.53,2.539Z" transform="translate(-6.38 -5.825)" fill="#fff"/>
      <path id="Path_694" data-name="Path 694" d="M75.555,62.188a2.7,2.7,0,0,1-.052-.376h-.026a2.117,2.117,0,0,1-.051.376l-.565,1.88h1.266Zm1.3,4.266c-.119-.368-.265-.786-.47-1.419H74.639c-.179.564-.35,1.095-.444,1.419H72.656c.214-.53.573-1.454,1.069-2.829.539-1.471.871-2.412,1.042-2.976h1.573c.155.487.565,1.633,1.087,3.112.444,1.266.795,2.265.965,2.693Z" transform="translate(-6.977 -5.824)" fill="#fff"/>
      <path id="Path_695" data-name="Path 695" d="M84.135,66.456H80.681c.017-.393.034-1.18.034-2.12v-1.5c0-1.2-.009-1.718-.017-2.171h1.419c-.017.564-.026,1.112-.026,1.71v2.915h.855c.462,0,.924-.017,1.231-.034Z" transform="translate(-7.747 -5.825)" fill="#fff"/>
      <path id="Path_696" data-name="Path 696" d="M36.192,76.358c-.205,0-.479.009-.675.009v3.591h.624a1.651,1.651,0,0,0,1.684-1.838,1.538,1.538,0,0,0-1.633-1.762m-.146,4.685H34.114c.018-.376.034-.923.034-2.052V77.282c0-1.069-.008-1.684-.025-2.027.718,0,1.77-.008,2.146-.008,1.915,0,2.958.923,2.958,2.829a2.905,2.905,0,0,1-3.18,2.967" transform="translate(-3.276 -7.225)" fill="#fff"/>
      <path id="Path_697" data-name="Path 697" d="M43.115,77.368v1.479c0,1.189.017,1.745.025,2.2H41.722c.008-.41.017-1.06.017-2.163v-1.5c0-1.146-.009-1.745-.026-2.121h1.436c-.017.385-.034.984-.034,2.112" transform="translate(-4.005 -7.226)" fill="#fff"/>
      <path id="Path_698" data-name="Path 698" d="M47.6,76.273c-.163,0-.453.008-.582.008v1.539h.573a.8.8,0,0,0,.88-.8c0-.479-.273-.752-.871-.752m1.069,4.77c-.3-.539-.923-1.692-1.172-2.189h-.479c0,1.009.017,1.7.034,2.189H45.621c.008-.478.025-.966.025-1.958v-1.8c0-1.06-.008-1.565-.025-2.027.786-.008,1.71-.008,2.308-.008,1.48,0,1.95.7,1.95,1.607A1.71,1.71,0,0,1,48.75,78.5c.437.769,1.137,1.916,1.53,2.539Z" transform="translate(-4.381 -7.225)" fill="#fff"/>
      <path id="Path_699" data-name="Path 699" d="M56.012,81.044H52.481c.026-.393.026-1.095.026-2.112V77.3c0-1.069-.017-1.684-.026-2.044h3.4l.017,1.128c-.316-.008-.633-.025-1.248-.025h-.777v1.275h.8c.419,0,.726-.009,1.1-.018l-.043,1.035c-.334,0-.589-.017-1.025-.017h-.838v1.316h.88c.633,0,.957-.025,1.3-.042Z" transform="translate(-5.039 -7.226)" fill="#fff"/>
      <path id="Path_700" data-name="Path 700" d="M62.455,76.645a2.2,2.2,0,0,0-1.189-.334,1.719,1.719,0,0,0-1.8,1.873A1.672,1.672,0,0,0,61.2,80a2.557,2.557,0,0,0,1.282-.368l.137,1.205a4.38,4.38,0,0,1-1.659.316,2.742,2.742,0,0,1-2.942-2.889,3,3,0,0,1,3.164-3.138,4.841,4.841,0,0,1,1.454.231Z" transform="translate(-5.571 -7.214)" fill="#fff"/>
      <path id="Path_701" data-name="Path 701" d="M67.925,76.42h-.616v2.445c0,.846.008,1.676.025,2.179h-1.41c.017-.47.025-1.376.025-2.2V76.42h-.564c-.4,0-.736.008-1,.017l.016-1.18h4.523l.008,1.18c-.274-.009-.625-.017-1.009-.017" transform="translate(-6.183 -7.226)" fill="#fff"/>
      <path id="Path_702" data-name="Path 702" d="M73.288,76.286c-.8,0-1.41.692-1.41,1.881,0,1.145.581,1.847,1.394,1.847.752,0,1.393-.633,1.393-1.83,0-1.223-.589-1.9-1.377-1.9m-.042,4.873a2.727,2.727,0,0,1-2.813-2.967,2.84,2.84,0,0,1,2.933-3.077A2.683,2.683,0,0,1,76.11,78.09a2.819,2.819,0,0,1-2.865,3.069" transform="translate(-6.763 -7.213)" fill="#fff"/>
      <path id="Path_703" data-name="Path 703" d="M80.62,76.273c-.163,0-.453.008-.582.008v1.539h.573a.8.8,0,0,0,.88-.8c0-.479-.273-.752-.871-.752m1.068,4.77c-.3-.539-.924-1.692-1.172-2.189h-.479c0,1.009.017,1.7.034,2.189H78.645c.008-.478.025-.966.025-1.958v-1.8c0-1.06-.008-1.565-.025-2.027.786-.008,1.71-.008,2.308-.008,1.48,0,1.95.7,1.95,1.607a1.71,1.71,0,0,1-1.129,1.65c.437.769,1.137,1.916,1.53,2.539Z" transform="translate(-7.552 -7.225)" fill="#fff"/>
      <path id="Path_704" data-name="Path 704" d="M86.713,81.159a3.6,3.6,0,0,1-1.539-.368l.112-1.247a2.289,2.289,0,0,0,1.4.539.646.646,0,0,0,.735-.65c0-.376-.24-.531-.958-.83-1-.419-1.239-.948-1.239-1.624A1.89,1.89,0,0,1,87.3,75.115a3.873,3.873,0,0,1,1.454.265l-.222,1.214a1.936,1.936,0,0,0-1.136-.385.666.666,0,0,0-.736.633c0,.4.163.547.89.821.948.359,1.4.829,1.4,1.607,0,1.051-.778,1.889-2.24,1.889" transform="translate(-8.179 -7.213)" fill="#fff"/>
    </g>
  </g>
</svg>
